<?xml version="1.0" encoding="utf-8"?>
<!-- Svg Vector Icons : http://www.onlinewebfonts.com/icon -->
<!DOCTYPE svg PUBLIC "-//W3C//DTD SVG 1.1//EN" "http://www.w3.org/Graphics/SVG/1.1/DTD/svg11.dtd">
<svg version="1.1" xmlns="http://www.w3.org/2000/svg" xmlns:xlink="http://www.w3.org/1999/xlink" x="0px" y="0px" viewBox="0 0 1000 1000" enable-background="new 0 0 1000 1000" xml:space="preserve">
<metadata> Svg Vector Icons : http://www.onlinewebfonts.com/icon </metadata>
<g><path d="M924.3,254C880.5,179,821,119.5,746,75.7C670.9,31.9,588.9,10,500,10c-88.9,0-170.9,21.9-246,65.7C179,119.5,119.5,179,75.7,254C31.9,329.1,10,411.1,10,500c0,88.9,21.9,170.9,65.7,246C119.5,821,179,880.5,254,924.3S411.1,990,500,990c88.9,0,170.9-21.9,246-65.7C821,880.5,880.5,821,924.3,746c43.8-75.1,65.7-157.1,65.7-246C990,411.1,968.1,329.1,924.3,254z M875.8,658.5c-21.7,50.4-50.7,93.8-87.1,130.2c-36.4,36.4-79.8,65.4-130.2,87.1c-50.4,21.7-103.3,32.5-158.5,32.5s-108.1-10.8-158.5-32.5c-50.4-21.7-93.8-50.7-130.2-87.1c-36.4-36.4-65.4-79.7-87.1-130.2C102.5,608.1,91.7,555.3,91.7,500c0-55.3,10.8-108.1,32.5-158.5c21.7-50.4,50.7-93.8,87.1-130.2c36.4-36.4,79.8-65.4,130.2-87.1c50.4-21.7,103.3-32.5,158.5-32.5c55.3,0,108.1,10.8,158.5,32.5c50.4,21.7,93.8,50.7,130.2,87.1c36.4,36.4,65.4,79.8,87.1,130.2c21.7,50.4,32.5,103.2,32.5,158.5C908.4,555.3,897.5,608.2,875.8,658.5z"/><path d="M500,173.3c-90.2,0-167.2,31.9-231,95.7c-63.8,63.8-95.7,140.8-95.7,231c0,90.2,31.9,167.2,95.7,231c63.8,63.8,140.8,95.7,231,95.7s167.2-31.9,231-95.7c63.8-63.8,95.7-140.8,95.7-231c0-90.2-31.9-167.2-95.7-231C667.2,205.2,590.2,173.3,500,173.3z M673.2,673.2C625.4,721.1,567.6,745,500,745c-67.6,0-125.4-23.9-173.2-71.8C278.9,625.4,255,567.6,255,500c0-67.6,23.9-125.4,71.8-173.2C374.6,278.9,432.4,255,500,255c67.6,0,125.4,23.9,173.2,71.8C721.1,374.6,745,432.4,745,500C745,567.6,721.1,625.4,673.2,673.2z"/><path d="M500,336.7c-45.1,0-83.6,16-115.5,47.8c-31.9,31.9-47.8,70.4-47.8,115.5c0,45.1,15.9,83.6,47.8,115.5c31.9,31.9,70.4,47.9,115.5,47.9c45.1,0,83.6-16,115.5-47.9c31.9-31.9,47.8-70.4,47.8-115.5c0-45.1-16-83.6-47.8-115.5C583.6,352.6,545.1,336.7,500,336.7z"/></g>
</svg>